<svg xmlns="http://www.w3.org/2000/svg" viewBox="0 0 900 560" role="img" aria-label="Sistema geoespacial de salud publica">
  <defs>
    <linearGradient id="bg" x1="0" y1="0" x2="1" y2="1">
      <stop offset="0" stop-color="#dbeafe"/>
      <stop offset="1" stop-color="#ecfeff"/>
    </linearGradient>
    <filter id="shadow" x="-20%" y="-20%" width="140%" height="140%">
      <feDropShadow dx="0" dy="18" stdDeviation="18" flood-color="#14213d" flood-opacity=".18"/>
    </filter>
  </defs>
  <rect width="900" height="560" fill="url(#bg)"/>
  <g stroke="#7895bd" stroke-opacity=".28" stroke-width="1">
    <path d="M0 70h900M0 140h900M0 210h900M0 280h900M0 350h900M0 420h900M0 490h900"/>
    <path d="M80 0v560M160 0v560M240 0v560M320 0v560M400 0v560M480 0v560M560 0v560M640 0v560M720 0v560M800 0v560"/>
  </g>
  <path d="M156 394c72-124 173-178 294-162 118 16 192 96 301 42 38-18 75-50 117-96v382H0V436c61 13 113-1 156-42Z" fill="#bfe3dd" opacity=".72"/>
  <path d="M132 342c98-69 192-88 282-56 96 34 158 113 264 82 47-14 91-46 132-96" fill="none" stroke="#315b88" stroke-width="9" stroke-linecap="round" opacity=".34"/>
  <g filter="url(#shadow)">
    <circle cx="238" cy="304" r="56" fill="#ffffff"/>
    <path d="M226 268h24v24h24v24h-24v24h-24v-24h-24v-24h24z" fill="#1463ff"/>
  </g>
  <g filter="url(#shadow)">
    <circle cx="612" cy="238" r="68" fill="#ffffff"/>
    <path d="M612 188c34 32 56 58 56 88 0 31-25 56-56 56s-56-25-56-56c0-30 22-56 56-88z" fill="#d04a3a" opacity=".92"/>
    <circle cx="612" cy="278" r="24" fill="#fff"/>
  </g>
  <g filter="url(#shadow)">
    <rect x="380" y="328" width="150" height="118" rx="18" fill="#ffffff"/>
    <path d="M412 396h86" stroke="#1463ff" stroke-width="16" stroke-linecap="round"/>
    <path d="M455 353v86" stroke="#1463ff" stroke-width="16" stroke-linecap="round"/>
  </g>
</svg>
